ply
format ascii 1.0
comment Exported by Aspose.3D 23.2
element vertex 585
property float x
property float y
property float z
element face 795
property list uchar int vertex_index
end_header
528.644348 -545.76123 406.209717
528.644348 -327.108948 327.273712
472.828156 -327.108948 350.393524
449.708313 -327.108887 406.209717
472.828156 -327.108887 462.025879
528.644348 -327.108887 485.145691
584.46051 -327.108887 462.025879
607.580322 -327.108887 406.209686
584.460449 -327.108948 350.393494
421.77771 -401.204315 299.343079
528.644348 -401.204285 255.077484
377.512085 -401.204285 406.209717
421.77771 -401.204224 513.076355
528.644348 -401.204193 557.34198
635.510986 -401.204193 513.076355
679.776611 -401.204224 406.209717
635.510986 -401.204254 299.343048
421.778931 -394.539246 299.344299
528.644348 -394.539215 255.079224
377.513855 -394.539215 406.209717
421.778931 -394.539154 513.075073
528.644348 -394.539124 557.34021
635.509766 -394.539124 513.075073
679.774841 -394.539154 406.209717
635.509705 -394.539185 299.344269
470.722626 -401.204315 266.374329
388.80896 -401.204315 348.288025
388.80896 -401.204285 464.131409
470.722626 -401.204254 546.045105
586.56604 -401.204224 546.045105
668.479736 -401.204254 464.131409
668.479736 -401.204254 348.287964
586.56604 -401.204285 266.374298
470.723297 -394.538971 266.375946
388.810547 -394.53894 348.288696
388.810577 -394.53894 464.130737
470.723297 -394.538879 546.043518
586.56543 -394.538849 546.043518
668.478149 -394.538879 464.130737
668.478088 -394.538879 348.288635
586.565369 -394.53894 266.375916
498.828308 -476.906952 334.227417
456.662048 -476.906982 376.393677
456.662048 -476.906982 436.025757
498.828308 -476.906921 478.192017
558.460388 -476.906921 478.192017
600.626648 -476.906952 436.025757
600.626648 -476.906952 376.393677
558.460388 -476.906952 334.227417
596.020447 -327.108948 378.301697
556.552612 -327.108948 338.833679
500.736267 -327.108948 338.833618
461.26825 -327.108948 378.301575
461.26825 -327.108887 434.117737
500.736206 -327.108887 473.585754
556.55249 -327.108887 473.585754
596.020508 -327.108887 434.117584
528.644348 -327.108887 406.209686
635.507629 -353.374054 361.945557
572.908936 -353.374969 299.345764
484.379822 -353.375 299.345734
421.779968 -353.375427 361.945007
421.779968 -353.375427 450.474335
484.379822 -353.374847 513.073608
572.908875 -353.374817 513.073608
635.50769 -353.374023 450.473755
603.815186 -352.674255 331.038788
528.644348 -353.19516 299.34433
453.474945 -352.672302 331.040314
421.776917 -353.197052 406.209717
453.473572 -352.674042 481.380432
528.644348 -353.197845 513.078064
603.815918 -352.675079 481.381226
635.513977 -353.199066 406.209717
492.780609 -498.780182 919.208679
550.155212 -498.780182 919.208679
569.975586 -498.780212 898.579895
569.975586 -498.780151 716.952332
550.155151 -498.780212 697.021362
492.78064 -498.780212 697.021362
472.960236 -498.780151 716.952332
472.960205 -498.780212 898.579834
468.750977 -336.126221 957.244446
574.184814 -336.126221 957.244446
610.607544 -336.126221 921.371643
610.607544 -336.126221 695.023621
574.184814 -336.126221 660.364258
468.750977 -336.126221 660.364258
432.328217 -336.126221 695.02356
432.328217 -336.126221 921.371643
609.639343 -379.280823 1022.976318
433.296417 -379.280823 1022.976257
670.88739 -379.191406 959.009155
670.897766 -379.198853 656.859131
609.639343 -379.280884 594.636719
433.296417 -379.280884 594.636658
372.038025 -379.198853 656.859131
372.048401 -379.191406 959.009094
521.467896 -534.335815 868.932556
521.467896 -534.335999 749.814575
577.8573 -452.534546 967.611145
465.078491 -452.534546 967.611145
617.020508 -452.534546 927.376099
617.020508 -452.534546 687.919312
577.857239 -452.534576 648.85553
465.078522 -452.534576 648.85553
425.915283 -452.534546 687.919312
425.915283 -452.534546 927.376099
609.549805 -385.511292 1022.74707
433.385986 -385.511292 1022.747009
670.843384 -385.544769 958.813782
670.851013 -385.535126 657.067383
609.55127 -385.508209 594.866455
433.384491 -385.508209 594.866394
372.084778 -385.535126 657.067383
372.092407 -385.544739 958.813782
600.604919 -365.150787 1008.036438
588.99939 -350.273651 987.190369
453.936432 -350.273621 987.190308
442.330841 -365.150848 1008.036377
655.508728 -365.088898 951.436279
635.770874 -350.242371 939.864624
655.515991 -365.094055 664.577698
635.774475 -350.244934 676.32373
600.604919 -365.150909 609.601929
588.999268 -350.27359 630.454102
442.330872 -365.150879 609.601929
453.936432 -350.273651 630.453979
387.4198 -365.094055 664.577698
407.161346 -350.244934 676.323669
387.427063 -365.088898 951.436279
407.164917 -350.242371 939.864563
521.467896 -336.126221 808.601868
602.864258 -327.268524 1185.64624
635.312439 -327.268524 1270.303345
601.719177 -327.268524 1331.764526
704.576111 -399.728149 1293.134033
656.211914 -399.728241 1152.70105
648.91626 -399.72818 1404.416748
690.395508 -399.72821 1219.282837
698.768005 -399.728271 1347.493896
570.658997 -399.72821 1412.348389
601.727722 -399.72821 1098.020996
657.910767 -348.69162 1227.382202
658.144653 -348.69162 1323.186768
579.553101 -348.69162 1377.703369
580.960754 -348.69165 1115.163818
704.576111 -383.49176 1293.134033
656.211914 -383.491791 1152.70105
648.916321 -383.49173 1404.416748
690.395508 -383.491699 1219.282837
698.768127 -383.491791 1347.493896
570.659058 -383.491821 1412.348267
601.727661 -383.491821 1098.020874
582.070313 -506.499298 1245.906006
584.168823 -504.694824 1286.508179
537.895569 -504.694855 1314.07251
548.976501 -504.694824 1202.735596
522.862 -399.72821 1372.669189
522.862 -327.268494 1356.486694
522.862 -327.450439 1137.059326
522.862 -399.728302 1047.716553
341.147888 -383.49176 1293.134033
387.813232 -348.69162 1227.382202
355.328461 -383.491699 1219.282837
396.807678 -383.49173 1404.416748
387.579315 -348.69162 1323.186768
346.955872 -383.491791 1347.493896
389.512054 -383.491791 1152.70105
464.763245 -348.69165 1115.163818
443.996307 -383.491821 1098.020874
442.859711 -327.268524 1185.64624
410.41156 -327.268524 1270.303345
444.004852 -327.268524 1331.764526
466.170898 -348.69162 1377.703369
522.862 -327.454895 1356.825928
522.862 -383.19632 1047.974609
522.862 -383.491821 1047.716553
346.955994 -399.728271 1347.493896
341.147888 -399.728149 1293.134033
461.555176 -504.694824 1286.508179
475.065002 -399.72821 1412.348389
396.807739 -399.72818 1404.416748
507.828461 -504.694855 1314.07251
475.064941 -383.491821 1412.348267
522.862 -327.268524 1137.546021
389.512115 -399.728241 1152.70105
443.996277 -399.72821 1098.020996
355.328461 -399.72821 1219.282837
463.653717 -506.499298 1245.906006
496.747467 -504.694824 1202.735596
522.862 -401.690857 1050.303467
522.862 -559.447266 1255.937378
522.862 -383.491791 1373.76001
522.862 -327.268524 1255.937378
214.827789 -327.268524 1185.64624
247.275925 -327.268524 1270.303345
213.682648 -327.268524 1331.764526
316.539612 -399.728149 1293.134033
268.175385 -399.728241 1152.70105
260.879761 -399.72818 1404.416748
302.359039 -399.72821 1219.282837
310.731506 -399.728271 1347.493896
182.622498 -399.72821 1412.348389
213.691238 -399.72821 1098.020996
269.874268 -348.69162 1227.382202
270.108185 -348.69162 1323.186768
191.516602 -348.69162 1377.703369
192.924255 -348.69165 1115.163818
316.539612 -383.49176 1293.134033
268.175446 -383.491791 1152.70105
260.879822 -383.49173 1404.416748
302.359039 -383.491699 1219.282837
310.731628 -383.491791 1347.493896
182.622559 -383.491821 1412.348267
213.691193 -383.491821 1098.020874
194.033783 -506.499298 1245.906006
196.132309 -504.694824 1286.508179
149.859039 -504.694855 1314.07251
160.940018 -504.694824 1202.735596
134.8255 -399.72821 1372.669189
134.8255 -327.268494 1356.486694
134.8255 -327.450439 1137.059326
134.8255 -399.728302 1047.716553
-46.888626 -383.49176 1293.134033
-0.223251 -348.69162 1227.382202
-32.708038 -383.491699 1219.282837
8.771194 -383.49173 1404.416748
-0.457184 -348.69162 1323.186768
-41.080612 -383.491791 1347.493896
1.475555 -383.491791 1152.70105
76.726738 -348.69165 1115.163818
55.959816 -383.491821 1098.020874
54.823219 -327.268524 1185.64624
22.375076 -327.268524 1270.303345
55.968346 -327.268524 1331.764526
78.134407 -348.69162 1377.703369
134.8255 -327.454895 1356.825928
134.8255 -383.19632 1047.974609
134.8255 -383.491821 1047.716553
-41.080521 -399.728271 1347.493896
-46.888611 -399.728149 1293.134033
73.518692 -504.694824 1286.508179
87.028496 -399.72821 1412.348389
8.771225 -399.72818 1404.416748
119.791954 -504.694855 1314.07251
87.028435 -383.491821 1412.348267
134.8255 -327.268524 1137.546021
1.475616 -399.728241 1152.70105
55.959763 -399.72821 1098.020996
-32.708038 -399.72821 1219.282837
75.617218 -506.499298 1245.906006
108.710976 -504.694824 1202.735596
134.8255 -401.690857 1050.303467
134.8255 -559.447266 1255.937378
134.8255 -383.491791 1373.76001
134.8255 -327.268524 1255.937378
-180.931305 -327.268524 1185.64624
-148.48317 -327.268524 1270.303345
-182.076447 -327.268524 1331.764526
-79.219482 -399.728149 1293.134033
-127.58371 -399.728241 1152.70105
-134.879318 -399.72818 1404.416748
-93.400055 -399.72821 1219.282837
-85.027573 -399.728271 1347.493896
-213.136597 -399.72821 1412.348389
-182.067856 -399.72821 1098.020996
-125.884842 -348.69162 1227.382202
-125.650909 -348.69162 1323.186768
-204.242493 -348.69162 1377.703369
-202.834839 -348.69165 1115.163818
-79.219467 -383.49176 1293.134033
-127.583649 -383.491791 1152.70105
-134.879288 -383.49173 1404.416748
-93.400055 -383.491699 1219.282837
-85.027481 -383.491791 1347.493896
-213.136536 -383.491821 1412.348267
-182.067902 -383.491821 1098.020874
-201.725311 -506.499298 1245.906006
-199.626785 -504.694824 1286.508179
-245.900055 -504.694855 1314.07251
-234.819077 -504.694824 1202.735596
-260.933594 -399.72821 1372.669189
-260.933594 -327.268494 1356.486694
-260.933594 -327.450439 1137.059326
-260.933594 -399.728302 1047.716553
-442.647705 -383.49176 1293.134033
-395.982361 -348.69162 1227.382202
-428.467133 -383.491699 1219.282837
-386.987915 -383.49173 1404.416748
-396.216278 -348.69162 1323.186768
-436.839722 -383.491791 1347.493896
-394.283539 -383.491791 1152.70105
-319.032349 -348.69165 1115.163818
-339.799286 -383.491821 1098.020874
-340.935883 -327.268524 1185.64624
-373.384033 -327.268524 1270.303345
-339.790741 -327.268524 1331.764526
-317.624695 -348.69162 1377.703369
-260.933594 -327.454895 1356.825928
-260.933594 -383.19632 1047.974609
-260.933594 -383.491821 1047.716553
-436.8396 -399.728271 1347.493896
-442.647705 -399.728149 1293.134033
-322.240417 -504.694824 1286.508179
-308.730591 -399.72821 1412.348389
-386.987854 -399.72818 1404.416748
-275.967133 -504.694855 1314.07251
-308.730652 -383.491821 1412.348267
-260.933594 -327.268524 1137.546021
-394.283478 -399.728241 1152.70105
-339.799316 -399.72821 1098.020996
-428.467133 -399.72821 1219.282837
-320.141876 -506.499298 1245.906006
-287.048126 -504.694824 1202.735596
-260.933594 -401.690857 1050.303467
-260.933594 -559.447266 1255.937378
-260.933594 -383.491791 1373.76001
-260.933594 -327.268524 1255.937378
102.006378 -498.780182 919.208679
159.380951 -498.780182 919.208679
179.201324 -498.780212 898.579895
179.20134 -498.780151 716.952332
159.380951 -498.780212 697.021362
102.006393 -498.780212 697.021362
82.186005 -498.780151 716.952332
82.185989 -498.780212 898.579834
77.976746 -336.126221 957.244446
183.410599 -336.126221 957.244446
219.833344 -336.126221 921.371643
219.833344 -336.126221 695.023621
183.410583 -336.126221 660.364258
77.97673 -336.126221 660.364258
41.553986 -336.126221 695.02356
41.553986 -336.126221 921.371643
218.865143 -379.280823 1022.976318
42.522186 -379.280823 1022.976257
280.113159 -379.191406 959.009155
280.123535 -379.198853 656.859131
218.865112 -379.280884 594.636719
42.522186 -379.280884 594.636658
-18.736206 -379.198853 656.859131
-18.72583 -379.191406 959.009094
130.693665 -534.335815 868.932556
130.693665 -534.335999 749.814575
187.083038 -452.534546 967.611145
74.30426 -452.534546 967.611145
226.246277 -452.534546 927.376099
226.246277 -452.534546 687.919312
187.083038 -452.534576 648.85553
74.304291 -452.534576 648.85553
35.141052 -452.534546 687.919312
35.141052 -452.534546 927.376099
218.775604 -385.511292 1022.74707
42.61174 -385.511292 1022.747009
280.069153 -385.544769 958.813782
280.076782 -385.535126 657.067383
218.777039 -385.508209 594.866455
42.61026 -385.508209 594.866394
-18.689453 -385.535126 657.067383
-18.681824 -385.544739 958.813782
209.830688 -365.150787 1008.036438
198.225189 -350.273651 987.190369
63.162201 -350.273621 987.190308
51.55661 -365.150848 1008.036377
264.734497 -365.088898 951.436279
244.996643 -350.242371 939.864624
264.74176 -365.094055 664.577698
245.000214 -350.244934 676.32373
209.830719 -365.150909 609.601929
198.225067 -350.27359 630.454102
51.556641 -365.150879 609.601929
63.162201 -350.273651 630.453979
-3.354431 -365.094055 664.577698
16.387115 -350.244934 676.323669
-3.347168 -365.088898 951.436279
16.390686 -350.242371 939.864563
130.693665 -336.126221 808.601868
-288.767853 -498.780182 919.208679
-231.39328 -498.780182 919.208679
-211.572906 -498.780212 898.579895
-211.572891 -498.780151 716.952332
-231.39328 -498.780212 697.021362
-288.767822 -498.780212 697.021362
-308.588226 -498.780151 716.952332
-308.588257 -498.780212 898.579834
-312.797485 -336.126221 957.244446
-207.363632 -336.126221 957.244446
-170.940887 -336.126221 921.371643
-170.940887 -336.126221 695.023621
-207.363647 -336.126221 660.364258
-312.797485 -336.126221 660.364258
-349.220245 -336.126221 695.02356
-349.220245 -336.126221 921.371643
-171.909088 -379.280823 1022.976318
-348.252045 -379.280823 1022.976257
-110.661057 -379.191406 959.009155
-110.650711 -379.198853 656.859131
-171.909119 -379.280884 594.636719
-348.252045 -379.280884 594.636658
-409.510437 -379.198853 656.859131
-409.500061 -379.191406 959.009094
-260.080566 -534.335815 868.932556
-260.080566 -534.335999 749.814575
-203.691193 -452.534546 967.611145
-316.469971 -452.534546 967.611145
-164.527954 -452.534546 927.376099
-164.527954 -452.534546 687.919312
-203.691193 -452.534576 648.85553
-316.46994 -452.534576 648.85553
-355.633179 -452.534546 687.919312
-355.633179 -452.534546 927.376099
-171.998627 -385.511292 1022.74707
-348.162476 -385.511292 1022.747009
-110.705063 -385.544769 958.813782
-110.697433 -385.535126 657.067383
-171.997192 -385.508209 594.866455
-348.163971 -385.508209 594.866394
-409.463684 -385.535126 657.067383
-409.456055 -385.544739 958.813782
-180.943542 -365.150787 1008.036438
-192.549042 -350.273651 987.190369
-327.61203 -350.273621 987.190308
-339.217621 -365.150848 1008.036377
-126.039749 -365.088898 951.436279
-145.777588 -350.242371 939.864624
-126.032471 -365.094055 664.577698
-145.774017 -350.244934 676.32373
-180.943512 -365.150909 609.601929
-192.549164 -350.27359 630.454102
-339.21759 -365.150879 609.601929
-327.61203 -350.273651 630.453979
-394.128662 -365.094055 664.577698
-374.387115 -350.244934 676.323669
-394.121399 -365.088898 951.436279
-374.383545 -350.242371 939.864563
-260.080566 -336.126221 808.601868
134.68959 -545.76123 406.209717
134.68956 -327.108948 327.273712
78.873383 -327.108948 350.393524
55.753555 -327.108887 406.209717
78.873383 -327.108887 462.025879
134.68956 -327.108887 485.145691
190.505737 -327.108887 462.025879
213.625549 -327.108887 406.209686
190.505707 -327.108948 350.393494
27.822937 -401.204315 299.343079
134.689575 -401.204285 255.077484
-16.442673 -401.204285 406.209717
27.822929 -401.204224 513.076355
134.689575 -401.204193 557.34198
241.556213 -401.204193 513.076355
285.821808 -401.204224 406.209717
241.556183 -401.204254 299.343048
27.824173 -394.539246 299.344299
134.689575 -394.539215 255.079224
-16.440933 -394.539215 406.209717
27.824165 -394.539154 513.075073
134.689575 -394.539124 557.34021
241.554993 -394.539124 513.075073
285.820068 -394.539154 406.209717
241.554932 -394.539185 299.344269
76.767853 -401.204315 266.374329
-5.145828 -401.204315 348.288025
-5.145821 -401.204285 464.131409
76.767853 -401.204254 546.045105
192.611298 -401.204224 546.045105
274.524963 -401.204254 464.131409
274.524963 -401.204254 348.287964
192.611267 -401.204285 266.374298
76.768524 -394.538971 266.375946
-5.144211 -394.53894 348.288696
-5.144203 -394.53894 464.130737
76.768524 -394.538879 546.043518
192.610626 -394.538849 546.043518
274.523376 -394.538879 464.130737
274.523315 -394.538879 348.288635
192.610596 -394.53894 266.375916
104.87355 -476.906952 334.227417
62.707291 -476.906982 376.393677
62.707291 -476.906982 436.025757
104.873535 -476.906921 478.192017
164.50563 -476.906921 478.192017
206.671875 -476.906952 436.025757
206.671875 -476.906952 376.393677
164.505615 -476.906952 334.227417
202.065674 -327.108948 378.301697
162.597824 -327.108948 338.833679
106.781479 -327.108948 338.833618
67.313477 -327.108948 378.301575
67.313461 -327.108887 434.117737
106.781418 -327.108887 473.585754
162.597687 -327.108887 473.585754
202.065704 -327.108887 434.117584
134.689575 -327.108887 406.209686
241.552856 -353.374054 361.945557
178.954193 -353.374969 299.345764
90.425049 -353.375 299.345734
27.825195 -353.375427 361.945007
27.825188 -353.375427 450.474335
90.425034 -353.374847 513.073608
178.954102 -353.374817 513.073608
241.552917 -353.374023 450.473755
209.860443 -352.674255 331.038788
134.68956 -353.19516 299.34433
59.520172 -352.672302 331.040314
27.822128 -353.197052 406.209717
59.518814 -352.674042 481.380432
134.68956 -353.197845 513.078064
209.861145 -352.675079 481.381226
241.559204 -353.199066 406.209717
-259.265198 -545.76123 406.209717
-259.265198 -327.108948 327.273712
-315.08139 -327.108948 350.393524
-338.201233 -327.108887 406.209717
-315.08139 -327.108887 462.025879
-259.265198 -327.108887 485.145691
-203.449036 -327.108887 462.025879
-180.329224 -327.108887 406.209686
-203.449066 -327.108948 350.393494
-366.131836 -401.204315 299.343079
-259.265198 -401.204285 255.077484
-410.397461 -401.204285 406.209717
-366.131836 -401.204224 513.076355
-259.265198 -401.204193 557.34198
-152.39856 -401.204193 513.076355
-108.132965 -401.204224 406.209717
-152.39859 -401.204254 299.343048
-366.130615 -394.539246 299.344299
-259.265198 -394.539215 255.079224
-410.395691 -394.539215 406.209717
-366.130615 -394.539154 513.075073
-259.265198 -394.539124 557.34021
-152.39978 -394.539124 513.075073
-108.134705 -394.539154 406.209717
-152.399841 -394.539185 299.344269
-317.18692 -401.204315 266.374329
-399.100586 -401.204315 348.288025
-399.100586 -401.204285 464.131409
-317.18692 -401.204254 546.045105
-201.343475 -401.204224 546.045105
-119.42981 -401.204254 464.131409
-119.42981 -401.204254 348.287964
-201.343506 -401.204285 266.374298
-317.186249 -394.538971 266.375946
-399.098999 -394.53894 348.288696
-399.098969 -394.53894 464.130737
-317.186249 -394.538879 546.043518
-201.344147 -394.538849 546.043518
-119.431396 -394.538879 464.130737
-119.431458 -394.538879 348.288635
-201.344177 -394.53894 266.375916
-289.081238 -476.906952 334.227417
-331.247498 -476.906982 376.393677
-331.247498 -476.906982 436.025757
-289.081238 -476.906921 478.192017
-229.449142 -476.906921 478.192017
-187.282898 -476.906952 436.025757
-187.282898 -476.906952 376.393677
-229.449158 -476.906952 334.227417
-191.889099 -327.108948 378.301697
-231.356949 -327.108948 338.833679
-287.173279 -327.108948 338.833618
-326.641296 -327.108948 378.301575
-326.641296 -327.108887 434.117737
-287.17334 -327.108887 473.585754
-231.357086 -327.108887 473.585754
-191.889069 -327.108887 434.117584
-259.265198 -327.108887 406.209686
-152.401917 -353.374054 361.945557
-215.00058 -353.374969 299.345764
-303.529724 -353.375 299.345734
-366.129578 -353.375427 361.945007
-366.129578 -353.375427 450.474335
-303.529724 -353.374847 513.073608
-215.000671 -353.374817 513.073608
-152.401855 -353.374023 450.473755
-184.09433 -352.674255 331.038788
-259.265198 -353.19516 299.34433
-334.434601 -352.672302 331.040314
-366.132629 -353.197052 406.209717
-334.435974 -352.674042 481.380432
-259.265198 -353.197845 513.078064
-184.093628 -352.675079 481.381226
-152.395569 -353.199066 406.209717
4 0 42 9 41
4 0 43 11 42
4 0 44 12 43
4 0 45 13 44
4 0 46 14 45
4 0 48 16 47
3 1 67 60
3 2 68 61
3 3 69 62
3 54 4 63
3 5 71 64
3 6 72 65
3 7 73 58
3 8 66 59
4 17 33 25 9
4 19 34 26 11
4 20 35 27 12
4 21 36 28 13
4 22 37 29 14
4 23 38 30 15
4 24 39 31 16
4 18 40 32 10
3 9 25 41
4 18 10 25 33
4 17 9 26 34
4 19 11 27 35
4 20 12 28 36
4 21 13 29 37
4 22 14 30 38
4 23 15 31 39
4 24 16 32 40
3 25 10 41
4 0 47 15 46
4 10 48 0 41
3 66 8 58
3 67 1 59
3 68 2 60
3 34 19 61
3 70 4 62
3 71 5 63
3 72 6 64
3 73 7 65
3 6 56 57
3 56 7 57
3 7 49 57
3 49 8 57
3 8 50 57
3 50 1 57
3 1 51 57
3 51 2 57
3 2 52 57
3 52 3 57
3 3 53 57
3 53 4 57
3 4 54 57
3 54 5 57
3 5 55 57
3 55 6 57
3 17 34 61
3 19 35 62
3 20 36 63
3 5 54 63
3 4 70 63
3 63 36 21
3 62 35 20
3 69 3 61
3 60 33 17
3 4 53 62
3 62 53 3
3 3 52 61
3 61 52 2
3 2 51 60
3 60 51 1
3 1 50 59
3 59 50 8
3 8 49 58
3 58 49 7
3 7 56 65
3 65 56 6
3 6 55 64
3 64 55 5
3 21 37 64
3 64 37 22
3 22 38 65
3 65 38 23
3 23 39 58
3 58 39 24
3 24 40 59
3 59 40 18
3 18 33 60
3 10 32 48
3 48 32 16
3 16 31 47
3 47 31 15
3 15 30 46
3 46 30 14
3 14 29 45
3 45 29 13
3 13 28 44
3 44 28 12
3 12 27 43
3 43 27 11
3 11 26 42
3 42 26 9
3 58 24 66
3 66 24 59
3 59 18 67
3 67 18 60
3 60 17 68
3 68 17 61
3 61 19 69
3 69 19 62
3 62 20 70
3 70 20 63
3 63 21 71
3 71 21 64
3 64 22 72
3 72 22 65
3 65 23 73
3 73 23 58
4 75 100 101 74
4 75 76 102 100
4 77 103 102 76
4 78 104 103 77
4 79 105 104 78
4 79 80 106 105
4 81 107 106 80
4 74 101 107 81
4 117 118 119 116
4 120 121 117 116
4 123 121 120 122
4 125 123 122 124
4 127 125 124 126
4 128 129 127 126
4 131 129 128 130
4 118 131 130 119
3 75 74 98
3 74 81 98
4 81 80 99 98
3 80 79 99
3 79 78 99
3 78 77 99
4 77 76 98 99
3 76 75 98
4 108 109 101 100
4 110 108 100 102
4 111 110 102 103
4 104 112 111 103
4 113 112 104 105
4 114 113 105 106
4 115 114 106 107
4 101 109 115 107
4 108 90 91 109
4 110 92 90 108
4 111 93 92 110
4 112 94 93 111
4 113 95 94 112
4 114 96 95 113
4 115 97 96 114
4 109 91 97 115
4 83 82 118 117
4 91 90 116 119
4 121 84 83 117
4 116 90 92 120
4 85 84 121 123
4 92 93 122 120
4 86 85 123 125
4 93 94 124 122
4 87 86 125 127
4 94 95 126 124
4 129 88 87 127
4 126 95 96 128
4 89 88 129 131
4 96 97 130 128
4 82 89 131 118
4 97 91 119 130
3 86 87 132
3 87 88 132
3 88 89 132
3 89 82 132
3 82 83 132
3 83 84 132
3 84 85 132
3 85 86 132
3 150 143 147
3 151 144 149
3 153 146 148
4 133 143 148 146
4 134 144 147 143
4 175 145 135 159
3 150 148 143
4 149 144 135 145
4 177 176 146 153
3 134 135 144
3 155 136 140
3 156 138 141
3 145 152 149
3 144 151 147
3 133 134 143
4 133 146 160 185
4 140 151 149 138
4 142 153 148 137
4 137 148 150 139
4 136 147 151 140
4 138 149 152 141
4 142 161 177 153
4 139 150 147 136
3 154 139 136
3 155 140 138
3 137 139 154
3 157 142 137
4 191 161 142 157
4 192 154 136 155
4 192 155 138 156
4 156 158 183 192
4 192 157 137 154
4 175 193 152 145
3 160 146 176
3 191 157 192
4 158 141 152 193
3 163 164 162
3 166 167 165
3 169 170 168
4 168 163 171 169
4 162 166 172 163
4 173 174 175 159
3 168 164 163
4 173 166 165 174
4 169 176 177 170
3 173 172 166
3 179 180 178
3 182 183 181
3 184 174 165
3 167 166 162
3 172 171 163
4 160 169 171 185
4 165 167 178 182
4 168 170 187 186
4 164 168 186 188
4 167 162 179 178
4 184 165 182 181
4 177 161 187 170
4 162 164 188 179
3 188 189 179
3 178 180 182
3 188 186 189
3 187 190 186
4 187 161 191 190
4 192 180 179 189
4 192 183 182 180
4 192 189 186 190
4 184 193 175 174
3 169 160 176
3 190 191 192
4 184 181 158 193
3 158 181 183
3 156 141 158
3 194 134 133
3 194 135 134
3 194 159 135
3 194 173 159
3 194 172 173
3 194 171 172
3 194 185 171
3 194 133 185
3 212 205 209
3 213 206 211
3 215 208 210
4 195 205 210 208
4 196 206 209 205
4 237 207 197 221
3 212 210 205
4 211 206 197 207
4 239 238 208 215
3 196 197 206
3 217 198 202
3 218 200 203
3 207 214 211
3 206 213 209
3 195 196 205
4 195 208 222 247
4 202 213 211 200
4 204 215 210 199
4 199 210 212 201
4 198 209 213 202
4 200 211 214 203
4 204 223 239 215
4 201 212 209 198
3 216 201 198
3 217 202 200
3 199 201 216
3 219 204 199
4 253 223 204 219
4 254 216 198 217
4 254 217 200 218
4 218 220 245 254
4 254 219 199 216
4 237 255 214 207
3 222 208 238
3 253 219 254
4 220 203 214 255
3 225 226 224
3 228 229 227
3 231 232 230
4 230 225 233 231
4 224 228 234 225
4 235 236 237 221
3 230 226 225
4 235 228 227 236
4 231 238 239 232
3 235 234 228
3 241 242 240
3 244 245 243
3 246 236 227
3 229 228 224
3 234 233 225
4 222 231 233 247
4 227 229 240 244
4 230 232 249 248
4 226 230 248 250
4 229 224 241 240
4 246 227 244 243
4 239 223 249 232
4 224 226 250 241
3 250 251 241
3 240 242 244
3 250 248 251
3 249 252 248
4 249 223 253 252
4 254 242 241 251
4 254 245 244 242
4 254 251 248 252
4 246 255 237 236
3 231 222 238
3 252 253 254
4 246 243 220 255
3 220 243 245
3 218 203 220
3 256 196 195
3 256 197 196
3 256 221 197
3 256 235 221
3 256 234 235
3 256 233 234
3 256 247 233
3 256 195 247
3 274 267 271
3 275 268 273
3 277 270 272
4 257 267 272 270
4 258 268 271 267
4 299 269 259 283
3 274 272 267
4 273 268 259 269
4 301 300 270 277
3 258 259 268
3 279 260 264
3 280 262 265
3 269 276 273
3 268 275 271
3 257 258 267
4 257 270 284 309
4 264 275 273 262
4 266 277 272 261
4 261 272 274 263
4 260 271 275 264
4 262 273 276 265
4 266 285 301 277
4 263 274 271 260
3 278 263 260
3 279 264 262
3 261 263 278
3 281 266 261
4 315 285 266 281
4 316 278 260 279
4 316 279 262 280
4 280 282 307 316
4 316 281 261 278
4 299 317 276 269
3 284 270 300
3 315 281 316
4 282 265 276 317
3 287 288 286
3 290 291 289
3 293 294 292
4 292 287 295 293
4 286 290 296 287
4 297 298 299 283
3 292 288 287
4 297 290 289 298
4 293 300 301 294
3 297 296 290
3 303 304 302
3 306 307 305
3 308 298 289
3 291 290 286
3 296 295 287
4 284 293 295 309
4 289 291 302 306
4 292 294 311 310
4 288 292 310 312
4 291 286 303 302
4 308 289 306 305
4 301 285 311 294
4 286 288 312 303
3 312 313 303
3 302 304 306
3 312 310 313
3 311 314 310
4 311 285 315 314
4 316 304 303 313
4 316 307 306 304
4 316 313 310 314
4 308 317 299 298
3 293 284 300
3 314 315 316
4 308 305 282 317
3 282 305 307
3 280 265 282
3 318 258 257
3 318 259 258
3 318 283 259
3 318 297 283
3 318 296 297
3 318 295 296
3 318 309 295
3 318 257 309
4 320 345 346 319
4 320 321 347 345
4 322 348 347 321
4 323 349 348 322
4 324 350 349 323
4 324 325 351 350
4 326 352 351 325
4 319 346 352 326
4 362 363 364 361
4 365 366 362 361
4 368 366 365 367
4 370 368 367 369
4 372 370 369 371
4 373 374 372 371
4 376 374 373 375
4 363 376 375 364
3 320 319 343
3 319 326 343
4 326 325 344 343
3 325 324 344
3 324 323 344
3 323 322 344
4 322 321 343 344
3 321 320 343
4 353 354 346 345
4 355 353 345 347
4 356 355 347 348
4 349 357 356 348
4 358 357 349 350
4 359 358 350 351
4 360 359 351 352
4 346 354 360 352
4 353 335 336 354
4 355 337 335 353
4 356 338 337 355
4 357 339 338 356
4 358 340 339 357
4 359 341 340 358
4 360 342 341 359
4 354 336 342 360
4 328 327 363 362
4 336 335 361 364
4 366 329 328 362
4 361 335 337 365
4 330 329 366 368
4 337 338 367 365
4 331 330 368 370
4 338 339 369 367
4 332 331 370 372
4 339 340 371 369
4 374 333 332 372
4 371 340 341 373
4 334 333 374 376
4 341 342 375 373
4 327 334 376 363
4 342 336 364 375
3 331 332 377
3 332 333 377
3 333 334 377
3 334 327 377
3 327 328 377
3 328 329 377
3 329 330 377
3 330 331 377
4 379 404 405 378
4 379 380 406 404
4 381 407 406 380
4 382 408 407 381
4 383 409 408 382
4 383 384 410 409
4 385 411 410 384
4 378 405 411 385
4 421 422 423 420
4 424 425 421 420
4 427 425 424 426
4 429 427 426 428
4 431 429 428 430
4 432 433 431 430
4 435 433 432 434
4 422 435 434 423
3 379 378 402
3 378 385 402
4 385 384 403 402
3 384 383 403
3 383 382 403
3 382 381 403
4 381 380 402 403
3 380 379 402
4 412 413 405 404
4 414 412 404 406
4 415 414 406 407
4 408 416 415 407
4 417 416 408 409
4 418 417 409 410
4 419 418 410 411
4 405 413 419 411
4 412 394 395 413
4 414 396 394 412
4 415 397 396 414
4 416 398 397 415
4 417 399 398 416
4 418 400 399 417
4 419 401 400 418
4 413 395 401 419
4 387 386 422 421
4 395 394 420 423
4 425 388 387 421
4 420 394 396 424
4 389 388 425 427
4 396 397 426 424
4 390 389 427 429
4 397 398 428 426
4 391 390 429 431
4 398 399 430 428
4 433 392 391 431
4 430 399 400 432
4 393 392 433 435
4 400 401 434 432
4 386 393 435 422
4 401 395 423 434
3 390 391 436
3 391 392 436
3 392 393 436
3 393 386 436
3 386 387 436
3 387 388 436
3 388 389 436
3 389 390 436
4 437 479 446 478
4 437 480 448 479
4 437 481 449 480
4 437 482 450 481
4 437 483 451 482
4 437 485 453 484
3 438 504 497
3 439 505 498
3 440 506 499
3 491 441 500
3 442 508 501
3 443 509 502
3 444 510 495
3 445 503 496
4 454 470 462 446
4 456 471 463 448
4 457 472 464 449
4 458 473 465 450
4 459 474 466 451
4 460 475 467 452
4 461 476 468 453
4 455 477 469 447
3 446 462 478
4 455 447 462 470
4 454 446 463 471
4 456 448 464 472
4 457 449 465 473
4 458 450 466 474
4 459 451 467 475
4 460 452 468 476
4 461 453 469 477
3 462 447 478
4 437 484 452 483
4 447 485 437 478
3 503 445 495
3 504 438 496
3 505 439 497
3 471 456 498
3 507 441 499
3 508 442 500
3 509 443 501
3 510 444 502
3 443 493 494
3 493 444 494
3 444 486 494
3 486 445 494
3 445 487 494
3 487 438 494
3 438 488 494
3 488 439 494
3 439 489 494
3 489 440 494
3 440 490 494
3 490 441 494
3 441 491 494
3 491 442 494
3 442 492 494
3 492 443 494
3 454 471 498
3 456 472 499
3 457 473 500
3 442 491 500
3 441 507 500
3 500 473 458
3 499 472 457
3 506 440 498
3 497 470 454
3 441 490 499
3 499 490 440
3 440 489 498
3 498 489 439
3 439 488 497
3 497 488 438
3 438 487 496
3 496 487 445
3 445 486 495
3 495 486 444
3 444 493 502
3 502 493 443
3 443 492 501
3 501 492 442
3 458 474 501
3 501 474 459
3 459 475 502
3 502 475 460
3 460 476 495
3 495 476 461
3 461 477 496
3 496 477 455
3 455 470 497
3 447 469 485
3 485 469 453
3 453 468 484
3 484 468 452
3 452 467 483
3 483 467 451
3 451 466 482
3 482 466 450
3 450 465 481
3 481 465 449
3 449 464 480
3 480 464 448
3 448 463 479
3 479 463 446
3 495 461 503
3 503 461 496
3 496 455 504
3 504 455 497
3 497 454 505
3 505 454 498
3 498 456 506
3 506 456 499
3 499 457 507
3 507 457 500
3 500 458 508
3 508 458 501
3 501 459 509
3 509 459 502
3 502 460 510
3 510 460 495
4 511 553 520 552
4 511 554 522 553
4 511 555 523 554
4 511 556 524 555
4 511 557 525 556
4 511 559 527 558
3 512 578 571
3 513 579 572
3 514 580 573
3 565 515 574
3 516 582 575
3 517 583 576
3 518 584 569
3 519 577 570
4 528 544 536 520
4 530 545 537 522
4 531 546 538 523
4 532 547 539 524
4 533 548 540 525
4 534 549 541 526
4 535 550 542 527
4 529 551 543 521
3 520 536 552
4 529 521 536 544
4 528 520 537 545
4 530 522 538 546
4 531 523 539 547
4 532 524 540 548
4 533 525 541 549
4 534 526 542 550
4 535 527 543 551
3 536 521 552
4 511 558 526 557
4 521 559 511 552
3 577 519 569
3 578 512 570
3 579 513 571
3 545 530 572
3 581 515 573
3 582 516 574
3 583 517 575
3 584 518 576
3 517 567 568
3 567 518 568
3 518 560 568
3 560 519 568
3 519 561 568
3 561 512 568
3 512 562 568
3 562 513 568
3 513 563 568
3 563 514 568
3 514 564 568
3 564 515 568
3 515 565 568
3 565 516 568
3 516 566 568
3 566 517 568
3 528 545 572
3 530 546 573
3 531 547 574
3 516 565 574
3 515 581 574
3 574 547 532
3 573 546 531
3 580 514 572
3 571 544 528
3 515 564 573
3 573 564 514
3 514 563 572
3 572 563 513
3 513 562 571
3 571 562 512
3 512 561 570
3 570 561 519
3 519 560 569
3 569 560 518
3 518 567 576
3 576 567 517
3 517 566 575
3 575 566 516
3 532 548 575
3 575 548 533
3 533 549 576
3 576 549 534
3 534 550 569
3 569 550 535
3 535 551 570
3 570 551 529
3 529 544 571
3 521 543 559
3 559 543 527
3 527 542 558
3 558 542 526
3 526 541 557
3 557 541 525
3 525 540 556
3 556 540 524
3 524 539 555
3 555 539 523
3 523 538 554
3 554 538 522
3 522 537 553
3 553 537 520
3 569 535 577
3 577 535 570
3 570 529 578
3 578 529 571
3 571 528 579
3 579 528 572
3 572 530 580
3 580 530 573
3 573 531 581
3 581 531 574
3 574 532 582
3 582 532 575
3 575 533 583
3 583 533 576
3 576 534 584
3 584 534 569
